<svg id="smtm" xmlns="http://www.w3.org/2000/svg" width="1024" height="1024" viewBox="0 0 1024 1024">
  <metadata><?xpacket begin="﻿" id="W5M0MpCehiHzreSzNTczkc9d"?>
<x:xmpmeta xmlns:x="adobe:ns:meta/" x:xmptk="Adobe XMP Core 5.6-c138 79.159824, 2016/09/14-01:09:01        ">
   <rdf:RDF xmlns:rdf="http://www.w3.org/1999/02/22-rdf-syntax-ns#">
      <rdf:Description rdf:about=""/>
   </rdf:RDF>
</x:xmpmeta>
                                                                                                    
                                                                                                    
                                                                                                    
                                                                                                    
                                                                                                    
                                                                                                    
                                                                                                    
                                                                                                    
                                                                                                    
                                                                                                    
                                                                                                    
                                                                                                    
                                                                                                    
                                                                                                    
                                                                                                    
                                                                                                    
                                                                                                    
                                                                                                    
                                                                                                    
                                                                                                    
                           
<?xpacket end="w"?></metadata>
<defs>
    <style>
      .cls-1 {
        fill: #fff;
      }

      .cls-2, .cls-4 {
        fill: #27bb19;
      }

      .cls-3 {
        fill: #fda238;
      }

      .cls-3, .cls-4 {
        fill-rule: evenodd;
      }
    </style>
  </defs>
  <rect id="e" class="cls-1" width="1024" height="1024" rx="240" ry="240"/>
  <rect id="d" class="cls-2" x="520" y="348" width="146" height="348"/>
  <path id="c" class="cls-3" d="M572.667,294H367v0.013c-0.167,0-.332-0.013-0.5-0.013a72.5,72.5,0,0,0,0,145c0.168,0,.333-0.012.5-0.013V439H658v0.006c120.444,0.271,218,97.987,218,218.494,0,119.838-96.48,217.126-216,218.468V876H198V730H657v-0.013c0.167,0,.332.013,0.5,0.013a72.5,72.5,0,0,0,0-145c-0.168,0-.333.011-0.5,0.013V585H367v0c-0.167,0-.333,0-0.5,0C245.826,585,148,487.174,148,366.5S245.826,148,366.5,148c0.167,0,.333,0,0.5,0v0H826V294H572.667Z"/>
  <path id="b" class="cls-4" d="M520,658H666V876H520V658Zm0-510H666V376H520V148Z"/>
  <rect id="a" class="cls-2" x="365" y="148" width="461" height="146"/>
</svg>
