<?xml version="1.0" encoding="UTF-8"?>
<svg width="16px" height="16px" viewBox="0 0 16 16" version="1.1" xmlns="http://www.w3.org/2000/svg" xmlns:xlink="http://www.w3.org/1999/xlink">
    <title>icon_login_mobile_offline</title>
    <defs>
        <linearGradient x1="50%" y1="0%" x2="50%" y2="100%" id="linearGradient-1">
            <stop stop-color="#AAAAAA" offset="0%"></stop>
            <stop stop-color="#666666" offset="100%"></stop>
        </linearGradient>
    </defs>
    <g id="icon" stroke="none" stroke-width="1" fill="none" fill-rule="evenodd">
        <g id="画板" transform="translate(-368.000000, -166.000000)">
            <g id="icon_login_mobile_offline" transform="translate(368.000000, 166.000000)">
                <rect id="矩形" fill="#834E4E" opacity="0" x="0" y="0" width="16" height="16"></rect>
                <rect id="矩形" fill="url(#linearGradient-1)" x="3" y="0" width="11" height="13" rx="2"></rect>
                <path d="M12.4769231,0 L4.46666667,0 C3.48888889,0 3,0.533333333 3,1.6 L3,14.4592593 C3,15.4864198 3.48888889,16 4.46666667,16 L12.4769231,16 C13.4923077,16 14,15.4864198 14,14.4592593 L14,1.6 C14,0.533333333 13.4923077,0 12.4769231,0 Z M12.3641026,0.888888889 C12.7401709,0.888888889 12.965812,0.928395062 13.0410256,1.00740741 C13.1162393,1.08641975 13.1538462,1.3037037 13.1538462,1.65925926 L13.1538462,11.7333333 C13.1538462,12.1679012 13.0974359,12.4246914 12.9846154,12.5037037 C12.9094017,12.6222222 12.6837607,12.6814815 12.3076923,12.6814815 L4.69230769,12.6814815 C4.31623932,12.6814815 4.07179487,12.6222222 3.95897436,12.5037037 C3.80854701,12.3851852 3.73333333,12.1283951 3.73333333,11.7333333 L3.73333333,1.71851852 C3.73333333,1.36296296 3.78974359,1.14567901 3.9025641,1.06666667 C4.01538462,0.948148148 4.25982906,0.888888889 4.63589744,0.888888889 L12.3641026,0.888888889 Z" id="形状" fill="#BBBBBB" fill-rule="nonzero"></path>
                <path d="M8,14.5 C8,14.8333333 8.16666667,15 8.5,15 C8.83333333,15 9,14.8333333 9,14.5 C9,14.1666667 8.83333333,14 8.5,14 C8.16666667,14 8,14.1666667 8,14.5 Z" id="路径" fill="#999999" fill-rule="nonzero"></path>
            </g>
        </g>
    </g>
</svg>