
<svg xmlns="http://www.w3.org/2000/svg" version="1.1" xmlns:xlink="http://www.w3.org/1999/xlink" preserveAspectRatio="none" x="0px" y="0px" width="18px" height="18px" viewBox="0 0 18 18">
<defs>
<filter id="Filter_1" x="-20%" y="-20%" width="140%" height="140%" color-interpolation-filters="sRGB">
<feColorMatrix in="SourceGraphic" type="matrix" values="1 0 0 0 0 0 1 0 0 0 0 0 1 0 0 0 0 0 0.15 0" result="result1"/>
</filter>

<g id="Layer1_0_FILL">
<path fill="#F8384D" fill-opacity="0" stroke="none" d="
M 0.5 18
L 18.5 18 18.5 0 0.5 0 0.5 18 Z"/>
</g>

<g id="Layer1_1_MEMBER_0_MEMBER_0_MEMBER_0_FILL">
<path fill="#FFFFFF" stroke="none" d="
M 265.5 240.9
Q 265.5 229.75 257.6 221.8 249.7 213.9 238.5 213.9 227.3 213.9 219.4 221.8 211.5 229.7 211.5 240.9 211.5 252.1 219.4 260 227.3 267.9 238.5 267.9 249.7 267.9 257.6 260 265.5 252.1 265.5 240.9 Z"/>
</g>

<g id="Layer1_1_MEMBER_1_MEMBER_0_MEMBER_0_FILL">
<path fill="#8C8C8C" stroke="none" d="
M 265.5 240.9
Q 265.5 229.75 257.6 221.8 249.7 213.9 238.5 213.9 227.3 213.9 219.4 221.8 211.5 229.7 211.5 240.9 211.5 252.1 219.4 260 227.3 267.9 238.5 267.9 249.7 267.9 257.6 260 265.5 252.1 265.5 240.9
M 256.9 222.5
Q 264.5 230.15 264.5 240.9 264.5 251.7 256.9 259.3 249.25 266.9 238.5 266.9 227.7 266.9 220.1 259.3 212.5 251.7 212.5 240.9 212.5 230.15 220.1 222.5 227.7 214.9 238.5 214.9 249.25 214.9 256.9 222.5 Z"/>
</g>

<g id="Layer1_1_MEMBER_2_MEMBER_0_MEMBER_0_FILL">
<path fill="#2E8FEE" stroke="none" d="
M 260.5 240.9
Q 260.5 231.8 254.05 225.35 247.6 218.9 238.5 218.9 229.35 218.9 222.95 225.35 216.5 231.8 216.5 240.9 216.5 250.05 222.95 256.5 229.35 262.9 238.5 262.9 247.6 262.9 254.05 256.5 260.5 250.05 260.5 240.9 Z"/>
</g>

<g id="Browser_icons_ai_Safari_Rectangle_9_copy_2_0_0_Layer0_0_MEMBER_0_MEMBER_0_FILL">
<path fill="#FFFFFF" stroke="none" d="
M 18.35 0
L 12.75 4.35
Q 11.55 3.5 9.95 3.25
L 9.2 0.15 8.4 3.25
Q 6.8 3.5 5.6 4.35
L 0 0 4.35 5.6
Q 3.5 6.8 3.25 8.4
L 0.2 9.15 3.25 9.95
Q 3.5 11.55 4.35 12.75
L 0 18.35 5.6 14
Q 6.8 14.85 8.4 15.1
L 9.2 18.15 9.95 15.1
Q 11.55 14.85 12.75 14
L 18.35 18.35 14 12.75
Q 14.85 11.55 15.1 9.95
L 18.2 9.15 15.1 8.4
Q 14.85 6.8 14 5.6
L 18.35 0
M 12.7 5.65
Q 14.15 7.1 14.15 9.2 14.15 11.25 12.7 12.7 11.25 14.15 9.2 14.15 7.1 14.15 5.65 12.7 4.2 11.25 4.2 9.2 4.2 7.1 5.65 5.65 7.1 4.2 9.2 4.2 11.25 4.2 12.7 5.65 Z"/>
</g>

<g id="Layer1_1_MEMBER_4_MEMBER_0_MEMBER_0_FILL">
<path fill="#E0031F" stroke="none" d="
M 237.05 239.5
L 239.9 242.35 251.2 228.2 237.05 239.5 Z"/>
</g>

<g id="Layer1_1_MEMBER_5_MEMBER_0_MEMBER_0_FILL">
<path fill="#FFFFFF" stroke="none" d="
M 239.9 242.35
L 237.05 239.5 225.75 253.65 239.9 242.35 Z"/>
</g>
</defs>

<g transform="matrix( 1, 0, 0, 1, 0,0) ">
<use xlink:href="#Layer1_0_FILL"/>
</g>

<g transform="matrix( 0.3333282470703125, 0, 0, 0.3333282470703125, -70,-71.3) ">
<use xlink:href="#Layer1_1_MEMBER_0_MEMBER_0_MEMBER_0_FILL"/>
</g>

<g transform="matrix( 0.3333282470703125, 0, 0, 0.3333282470703125, -70,-71.3) ">
<use xlink:href="#Layer1_1_MEMBER_1_MEMBER_0_MEMBER_0_FILL"/>
</g>

<g transform="matrix( 0.3333282470703125, 0, 0, 0.3333282470703125, -70,-71.3) ">
<use xlink:href="#Layer1_1_MEMBER_2_MEMBER_0_MEMBER_0_FILL"/>
</g>

<g transform="matrix( 0.4468231201171875, 0, 0, 0.4468231201171875, 5,4.8) ">
<g transform="matrix( 1, 0, 0, 1, 0,0) ">
<g transform="matrix( 1, 0, 0, 1, 0,0) ">
<use filter="url(#Filter_1)" xlink:href="#Browser_icons_ai_Safari_Rectangle_9_copy_2_0_0_Layer0_0_MEMBER_0_MEMBER_0_FILL"/>
</g>
</g>
</g>

<g transform="matrix( 0.3333282470703125, 0, 0, 0.3333282470703125, -70,-71.3) ">
<use xlink:href="#Layer1_1_MEMBER_4_MEMBER_0_MEMBER_0_FILL"/>
</g>

<g transform="matrix( 0.3333282470703125, 0, 0, 0.3333282470703125, -70,-71.3) ">
<use xlink:href="#Layer1_1_MEMBER_5_MEMBER_0_MEMBER_0_FILL"/>
</g>
</svg>
