
<svg xmlns="http://www.w3.org/2000/svg" version="1.1" xmlns:xlink="http://www.w3.org/1999/xlink" preserveAspectRatio="none" x="0px" y="0px" width="18px" height="18px" viewBox="0 0 18 18">
<defs>
<filter id="Filter_1" x="-20%" y="-20%" width="140%" height="140%" color-interpolation-filters="sRGB">
<feColorMatrix in="SourceGraphic" type="matrix" values="0 0 0 0 255 0 0 0 0 255 0 0 0 0 255 0 0 0 255 0" result="result1"/>

<feComposite in2="result1" in="BackgroundImage" operator="in" result="result2"/>

<feBlend mode="multiply" in2="result2" in="SourceGraphic" result="result3"/>
</filter>

<filter id="Filter_2" x="-20%" y="-20%" width="140%" height="140%" color-interpolation-filters="sRGB">
<feColorMatrix in="SourceGraphic" type="matrix" values="1 0 0 0 0 0 1 0 0 0 0 0 1 0 0 0 0 0 0.2 0" result="result1"/>
</filter>

<filter id="Filter_3" x="-20%" y="-20%" width="140%" height="140%" color-interpolation-filters="sRGB">
<feColorMatrix in="SourceGraphic" type="matrix" values="0 0 0 0 255 0 0 0 0 255 0 0 0 0 255 0 0 0 255 0" result="result1"/>

<feComposite in2="result1" in="BackgroundImage" operator="in" result="result2"/>

<feBlend mode="multiply" in2="result2" in="SourceGraphic" result="result3"/>
</filter>

<filter id="Filter_4" x="-20%" y="-20%" width="140%" height="140%" color-interpolation-filters="sRGB">
<feColorMatrix in="SourceGraphic" type="matrix" values="0 0 0 0 255 0 0 0 0 255 0 0 0 0 255 0 0 0 255 0" result="result1"/>

<feComposite in2="result1" in="BackgroundImage" operator="in" result="result2"/>

<feBlend mode="multiply" in2="result2" in="SourceGraphic" result="result3"/>
</filter>

<g id="Layer1_0_FILL">
<path fill="#F8384D" fill-opacity="0" stroke="none" d="
M 0 0
L 0 18 18 18 18 0 0 0 Z"/>
</g>

<g id="Layer0_0_MEMBER_0_MEMBER_0_FILL">
<path fill="#FFFFFF" stroke="none" d="
M 589.5 240.9
Q 589.5 229.75 581.6 221.8 573.7 213.9 562.5 213.9 551.3 213.9 543.4 221.8 535.5 229.7 535.5 240.9 535.5 252.1 543.4 260 551.3 267.9 562.5 267.9 573.7 267.9 581.6 260 589.5 252.1 589.5 240.9 Z"/>
</g>

<g id="Layer0_0_MEMBER_1_MEMBER_0_FILL">
<path fill="#D33C3A" stroke="none" d="
M 586.75 228.9
Q 583.35 222.15 576.95 218.1 570.35 213.9 562.5 213.9 555.5 213.9 549.35 217.35 543.4 220.65 539.7 226.3
L 551.25 245.45
Q 550.9 244.55 550.8 243.35 550.8 243 550.8 241.05 550.8 235.95 554.75 232.4 558.35 229.2 562.65 229.2
L 586.75 228.9 Z"/>
</g>

<g id="Browser_icons_ai_Chrome_shadow_0_Layer0_0_MEMBER_0_MEMBER_0_FILL">
<path fill="#8C8C8C" stroke="none" d="
M 18.2 17.9
L 0 0 13.05 20.95 18.2 17.9 Z"/>
</g>

<g id="Layer0_0_MEMBER_3_MEMBER_0_FILL">
<path fill="#FCCA48" stroke="none" d="
M 589.45 241.55
Q 589.55 234.95 586.8 228.85
L 563.95 228.9
Q 565.35 229.1 568.05 230.6 571.2 232.25 572.9 237.3 574.75 242.85 572.4 246.85
L 560.75 267.8
Q 568.5 268.25 575.25 264.8 582.4 261.2 586.1 254.35 589.35 248.4 589.45 241.55 Z"/>
</g>

<g id="Browser_icons_ai_Chrome_shadow_0_0_Layer0_0_MEMBER_0_MEMBER_0_FILL">
<path fill="#8C8C8C" stroke="none" d="
M 0.05 6
L 24 0.05 0.05 0 0.05 6 Z"/>
</g>

<g id="Layer0_0_MEMBER_5_MEMBER_0_FILL">
<path fill="#1F9E4D" stroke="none" d="
M 572.4 248.3
Q 571.45 249.45 569 250.9 568.5 251.2 567.4 251.6 565.1 252.6 562.65 252.6 558.7 252.6 555.8 250.65 552.95 248.75 551.7 245.2
L 539.85 226.2
Q 535.65 232.5 535.4 239.95 535.1 247.6 539 254.35 542.45 260.4 548.4 263.95 554.1 267.4 560.85 267.8
L 572.4 248.3 Z"/>
</g>

<g id="Browser_icons_ai_Chrome_shadow_4_0_Layer0_0_MEMBER_0_MEMBER_0_FILL">
<path fill="#8C8C8C" stroke="none" d="
M 12.15 3
L 6.95 0 0 23.6 12.15 3 Z"/>
</g>

<g id="Layer0_0_MEMBER_7_MEMBER_0_FILL">
<path fill="#EFEFEF" stroke="none" d="
M 574.5 240.9
Q 574.5 235.95 571 232.45 567.45 228.9 562.5 228.9 557.5 228.9 554 232.45 550.5 235.95 550.5 240.9 550.5 245.9 554 249.4 557.5 252.9 562.5 252.9 567.45 252.9 571 249.4 574.5 245.9 574.5 240.9 Z"/>
</g>

<g id="Layer0_0_MEMBER_8_MEMBER_0_FILL">
<path fill="#4780EE" stroke="none" d="
M 572.5 240.9
Q 572.5 236.8 569.55 233.85 566.65 230.9 562.5 230.9 558.35 230.9 555.4 233.85 552.5 236.75 552.5 240.9 552.5 245.05 555.4 248 558.35 250.9 562.5 250.9 566.65 250.9 569.55 248 572.5 245.05 572.5 240.9 Z"/>
</g>
</defs>

<g enable-background="new">
<g transform="matrix( 1, 0, 0, 1, 0,0) ">
<use xlink:href="#Layer1_0_FILL"/>
</g>

<g transform="matrix( 0.3326873779296875, 0, 0, 0.3323822021484375, -178.15,-71.1) ">
<use xlink:href="#Layer0_0_MEMBER_0_MEMBER_0_FILL"/>
</g>

<g transform="matrix( 0.3326873779296875, 0, 0, 0.3323822021484375, -178.15,-71.1) ">
<use xlink:href="#Layer0_0_MEMBER_1_MEMBER_0_FILL"/>
</g>

<g filter="url(#Filter_1)" transform="matrix( 1, 0, 0, 1, 0,0) ">
<g transform="matrix( 0.33270263671875, 0, 0, 0.3323974609375, 1.4,4.05) ">
<g transform="matrix( 1, 0, 0, 1, 0,0) ">
<use filter="url(#Filter_2)" xlink:href="#Browser_icons_ai_Chrome_shadow_0_Layer0_0_MEMBER_0_MEMBER_0_FILL"/>
</g>
</g>
</g>

<g transform="matrix( 0.3326873779296875, 0, 0, 0.3323822021484375, -178.15,-71.1) ">
<use xlink:href="#Layer0_0_MEMBER_3_MEMBER_0_FILL"/>
</g>

<g filter="url(#Filter_3)" transform="matrix( 1, 0, 0, 1, 0,0) ">
<g transform="matrix( 0.33270263671875, 0, 0, 0.3323974609375, 8.95,4.95) ">
<g transform="matrix( 1, 0, 0, 1, 0,0) ">
<use filter="url(#Filter_2)" xlink:href="#Browser_icons_ai_Chrome_shadow_0_0_Layer0_0_MEMBER_0_MEMBER_0_FILL"/>
</g>
</g>
</g>

<g transform="matrix( 0.3326873779296875, 0, 0, 0.3323822021484375, -178.15,-71.1) ">
<use xlink:href="#Layer0_0_MEMBER_5_MEMBER_0_FILL"/>
</g>

<g filter="url(#Filter_4)" transform="matrix( 1, 0, 0, 1, 0,0) ">
<g transform="matrix( 0.33270263671875, 0, 0, 0.3323974609375, 8.4,10.05) ">
<g transform="matrix( 1, 0, 0, 1, 0,0) ">
<use filter="url(#Filter_2)" xlink:href="#Browser_icons_ai_Chrome_shadow_4_0_Layer0_0_MEMBER_0_MEMBER_0_FILL"/>
</g>
</g>
</g>

<g transform="matrix( 0.3326873779296875, 0, 0, 0.3323822021484375, -178.15,-71.1) ">
<use xlink:href="#Layer0_0_MEMBER_7_MEMBER_0_FILL"/>
</g>

<g transform="matrix( 0.3326873779296875, 0, 0, 0.3323822021484375, -178.15,-71.1) ">
<use xlink:href="#Layer0_0_MEMBER_8_MEMBER_0_FILL"/>
</g>
</g>
</svg>
