
<svg xmlns="http://www.w3.org/2000/svg" version="1.1" xmlns:xlink="http://www.w3.org/1999/xlink" preserveAspectRatio="none" x="0px" y="0px" width="18px" height="18px" viewBox="0 0 18 18">
<defs>
<filter id="Filter_1" x="-20%" y="-20%" width="140%" height="140%" color-interpolation-filters="sRGB">
<feColorMatrix in="SourceGraphic" type="matrix" values="0 0 0 0 255 0 0 0 0 255 0 0 0 0 255 0 0 0 255 0" result="result1"/>

<feComposite in2="result1" in="BackgroundImage" operator="in" result="result2"/>

<feBlend mode="multiply" in2="result2" in="SourceGraphic" result="result3"/>
</filter>

<filter id="Filter_2" x="-20%" y="-20%" width="140%" height="140%" color-interpolation-filters="sRGB">
<feColorMatrix in="SourceGraphic" type="matrix" values="0 0 0 0 255 0 0 0 0 255 0 0 0 0 255 0 0 0 255 0" result="result1"/>

<feComposite in2="result1" in="BackgroundImage" operator="in" result="result2"/>

<feBlend mode="multiply" in2="result2" in="SourceGraphic" result="result3"/>
</filter>

<filter id="Filter_3" x="-20%" y="-20%" width="140%" height="140%" color-interpolation-filters="sRGB">
<feColorMatrix in="SourceGraphic" type="matrix" values="1 0 0 0 0 0 1 0 0 0 0 0 1 0 0 0 0 0 0.09 0" result="result1"/>
</filter>

<filter id="Filter_4" x="-20%" y="-20%" width="140%" height="140%" color-interpolation-filters="sRGB">
<feColorMatrix in="SourceGraphic" type="matrix" values="1 0 0 0 0 0 1 0 0 0 0 0 1 0 0 0 0 0 0.04000000000000001 0" result="result1"/>
</filter>

<g id="Layer1_0_FILL">
<path fill="#F8384D" fill-opacity="0" stroke="none" d="
M 0 0
L 0 18 18 18 18 0 0 0 Z"/>
</g>

<g id="Layer0_0_MEMBER_0_MEMBER_0_MEMBER_0_FILL">
<path fill="#2E8FEE" stroke="none" d="
M 463.1 221.5
Q 455.5 229.15 455.5 239.9 455.5 250.7 463.1 258.3 470.7 265.9 481.5 265.9 492.25 265.9 499.9 258.3 507.5 250.7 507.5 239.9 507.5 229.15 499.9 221.5 492.25 213.9 481.5 213.9 470.7 213.9 463.1 221.5 Z"/>
</g>

<g id="Browser_icons_ai_Firefox_Ellipse_3_copy_2_0_0_Layer0_0_MEMBER_0_MEMBER_0_FILL">
<path fill="#8C8C8C" stroke="none" d="
M 52 10.5
Q 52 5.05 49.75 0 46.7 6.95 40.35 11.2 33.85 15.5 26 15.5 18.15 15.5 11.65 11.2 5.3 6.95 2.2 0 0 4.95 0 10.5 0 21.3 7.6 28.9 15.2 36.5 26 36.5 36.75 36.5 44.4 28.9 52 21.3 52 10.5 Z"/>
</g>

<g id="Browser_icons_ai_Firefox_Ellipse_4_0_0_Layer0_0_MEMBER_0_MEMBER_0_FILL">
<path fill="#FFFFFF" stroke="none" d="
M 15.35 1.45
Q 12.7 0 9 0 5.25 0 2.65 1.45 0 2.95 0 5 0 7.1 2.65 8.55 5.25 10 9 10 12.75 10 15.35 8.55 18 7.1 18 5 18 2.95 15.35 1.45 Z"/>
</g>

<g id="Layer0_0_MEMBER_3_MEMBER_0_MEMBER_0_FILL">
<path fill="#FB9C33" stroke="none" d="
M 477.4 222.45
Q 477.15 221.7 476.35 221.8 474.95 221.95 472.85 222.85 470.95 223.75 469.35 225.35 466.05 224.95 463.6 225.85 462.9 225.25 462.2 224 462 223.7 461.9 222.9
L 461.7 221.85
Q 461.45 221.1 460.7 221.1 459.9 221.2 459.75 221.9
L 458.95 224.65
Q 458.35 227.4 458.35 229.45 456.3 231.95 455.3 235.15 454.2 239.8 454.7 244.1 455.2 248.2 457.3 252.85 460.6 259.65 466.9 263.75 473.4 267.9 481.1 267.9 483.9 267.9 487.35 267.45 491.3 266.9 492.95 266.1 493.55 265.8 493.45 265 493.3 264.3 492.5 264.2
L 492.25 264.2
Q 495.15 262.9 496.9 262
L 498.05 261.4
Q 500.5 260.15 501.6 259.35 503.45 258 504.25 256.3 504.6 255.6 504 255.1 503.3 254.6 502.75 255.1
L 501.95 255.65 502.65 254.75
Q 504.8 252.05 505.65 250.2 507.2 247 507.3 246.8 508.1 244.9 508.5 243.2
L 508.5 242.9
Q 508.4 242.25 508.05 242.05 507.35 241.6 506.75 242.45 506.5 242.85 506.1 243.1 505.7 243.35 505.45 243.55
L 505.7 241.9
Q 506.2 238.8 506.25 238.05 506.85 231.9 505.8 229.05 505.5 228.2 504.7 228.4
L 504.3 228.6
Q 503.8 227.85 501.85 225.4
L 501.25 224.7
Q 499.1 222.1 495.95 220.3 495.6 220.1 495.2 220.15 494.85 220.25 494.6 220.55 494.1 221.25 494.75 221.9 496.85 223.7 498.35 226.3
L 498.6 226.8 497.5 225.8
Q 497.2 225.55 496.8 225.55 496.4 225.55 496.15 225.8 495.5 226.4 496 227.15 499.15 231.55 499.2 237.9
L 498.8 237.05
Q 498.35 236.2 497.5 236.55 497.15 236.7 497 237.05 496.85 237.45 496.95 237.8 497.25 238.65 496.9 241.85
L 496.4 245.6
Q 496 245.5 495.8 245.55 495 245.75 495 246.5 494.95 248.75 492.8 251.5
L 492.75 251.6 491.25 253.45 491.2 253.45
Q 491.05 253.2 490.7 253 490.25 252.85 489.8 253.1 488.95 253.7 488.15 254 483.1 255.85 479.7 254.6 477.95 253.95 476.15 252.15
L 474.75 250.7 474.65 250.55
Q 476.15 250.9 477.2 250.9 478.75 250.9 480.05 250.4 480.7 250.2 482.3 249.3 483.15 248.7 483.85 248.45 484.15 248.3 485.1 248.3 486.8 248.3 487.6 247.65 488.2 247.15 487.9 246.5 487.35 245 485.85 244.3 484.3 243.65 482.55 244.05
L 480.65 244.65
Q 478.7 245.35 477.3 245.3 476.15 245.2 474.45 243.85 472.6 242.35 472.15 240.9 471.85 239.85 472.75 239.1 473.55 239.2 474.15 239.65 474.65 240.05 475.2 239.8 475.8 239.65 475.8 238.95 475.85 238.45 475.75 237.45 476 237.2 476.6 236.9
L 477.15 236.6
Q 477.95 236.2 479.15 235.4
L 479.8 235
Q 481.4 233.9 481.3 233.05 481.3 232.35 480.55 232 480.1 231.85 479.2 231.85
L 479 231.85 477.9 231.75
Q 476.35 231.6 475.2 230.9 473.95 230.25 473.1 229.4 473.25 228.25 473.55 227.4 474.05 226.25 474.95 225.35 475.6 224.7 477.05 223.6 477.65 223.1 477.4 222.45 Z"/>
</g>

<g id="Layer0_0_MEMBER_4_MEMBER_0_MEMBER_0_FILL">
<path fill="#FCD92E" stroke="none" d="
M 500.5 225.9
Q 500.75 226.6 500.6 227.5 500.4 228.5 500.5 228.9 500.5 229 500.2 229.65 499.85 230.4 499.9 230.9 501 235.2 500.5 239.9
L 499.5 240.9
Q 499.45 240.85 499 241.65 498.5 242.45 498.45 242.35 498.45 242.95 498.35 243.2 498.05 244.2 497.8 245.55 497.6 246.65 497.5 246.9 496.55 247.95 496.5 247.9 494.95 252.2 494.6 252.7
L 494.5 252.8 494.25 253.15 500.5 248.9 498.65 257.1
Q 499.3978515625 255.889453125 501.25 253.55 503.3 250.9 504.05 249.35 506.05 246 506.5 244.9 506.4 245 506 244.9 505.55 244.85 505.5 244.9 505 245.25 504.5 244.9 504.3 244.8 504.35 244.5 504.45 244.15 504.5 243.9 504.55 243.65 504.1 243.85 503.6 244 503.65 243.65
L 503.9 241.6
Q 504.3 239.55 504.5 237.85 504.55 237.15 505.15 234.8 505.6 232.95 505.5 231.9 505.2 231.9 504.9 231.55 504.6 231.2 504.5 230.9 504.15 230.2 502.6 228.4 500.7 226.15 500.5 225.9 Z"/>
</g>

<g id="Layer0_0_MEMBER_5_MEMBER_0_MEMBER_0_FILL">
<path fill="#EF6F1F" stroke="none" d="
M 477.35 222.45
Q 477.1 221.7 476.35 221.8 474.8 221.95 472.85 222.85 471.05 223.65 469.3 225.35 466.05 224.95 463.6 225.85 462.9 225.25 462.2 224 462 223.7 461.9 222.9
L 461.7 221.85
Q 461.45 221.1 460.7 221.1 459.9 221.2 459.75 221.9
L 458.95 224.65
Q 458.35 227.4 458.35 229.45 456.3 231.8 455.3 235.15 454.2 239.8 454.7 244.1 455.2 248.2 457.3 252.85 460.6 259.7 466.9 263.75 473.35 267.9 481.05 267.9 483.85 267.9 487.3 267.45 491.25 266.9 492.9 266.1 493.55 265.75 493.4 265 493.25 264.3 492.45 264.2
L 492.25 264.2
Q 495.35 262.8 496.85 262
L 498 261.4
Q 500.45 260.15 501.55 259.35 503.4 258 504.2 256.3 504.55 255.65 503.9 255.1 503.25 254.65 502.7 255.1
L 501.9 255.65 502.55 254.75
Q 504.4 252.4 505.6 250.2 506.8 248 507.6 245.75 508.35 243.6 508.4 242.45 508.5 241.8 508.05 241.6 507.35 241.2 506.7 242 506.65 242.05 506.05 242.85 505.7 243.3 505.4 243.55
L 505.6 241.9
Q 506.1 239.4 506.2 238.05 506.8 231.9 505.75 229.05 505.5 228.25 504.6 228.4
L 504.25 228.6
Q 503.25 227.2 501.75 225.4
L 501.2 224.7
Q 499.05 222.1 495.9 220.3 495.55 220.1 495.15 220.15 494.8 220.25 494.55 220.55 494.05 221.3 494.75 221.9 496.85 223.75 498.3 226.3
L 498.55 226.8 497.45 225.8
Q 497.15 225.55 496.75 225.55 496.35 225.55 496.1 225.8 495.45 226.4 495.95 227.15 499.1 231.55 499.15 237.9
L 498.75 237.05
Q 498.3 236.2 497.45 236.55 497.1 236.7 496.95 237.05 496.8 237.45 496.9 237.8 497.2 238.65 496.85 241.85
L 496.35 245.6
Q 495.95 245.5 495.75 245.55 495.15 245.7 494.95 246.5 494.3 249.5 492.8 251.5
L 492.7 251.6 491.2 253.45
Q 491 253.15 490.65 253 490.25 252.85 489.75 253.1 489.1 253.65 488.1 254 483.1 255.85 479.65 254.6 478 254 476.1 252.15
L 474.7 250.7 474.6 250.55
Q 476.1 250.9 477.2 250.9 478.75 250.9 480.05 250.4 480.65 250.2 482.25 249.3 483.1 248.7 483.8 248.45 484.1 248.3 485.05 248.3 486.75 248.3 487.6 247.65 488.15 247.1 487.9 246.5 487.3 245 485.8 244.3 484.3 243.65 482.5 244.05
L 480.6 244.65
Q 478.65 245.35 477.25 245.3 476.15 245.2 474.4 243.85 472.55 242.35 472.15 240.9 471.8 239.85 472.7 239.1 473.55 239.2 474.15 239.65 474.55 240.05 475.2 239.8 475.7 239.65 475.8 238.95
L 475.75 237.45
Q 475.95 237.25 476.55 236.9
L 477.15 236.6
Q 477.4 236.45 479.15 235.4
L 479.75 235
Q 481.35 233.9 481.3 233.05 481.2 232.3 480.5 232 480.1 231.85 479.2 231.85
L 479 231.85 477.85 231.75
Q 476.3 231.6 475.15 230.9 473.7 230.1 473.1 229.4 473.2 228.3 473.55 227.4 474.35 225.55 477.05 223.6 477.65 223.1 477.35 222.45
M 460.5 227.5
L 460.8 225.6 461.65 226.75 460.5 227.5
M 459.2 231.65
Q 460.45 229.85 462 228.9 463.75 227.8 465.3 227.45 467.15 227 469.5 227.4
L 469.75 227.4 469.95 227.35 470.1 227.25 470.3 227.15 470.35 227.1
Q 471.3 226.2 472.25 225.5
L 471.7 226.65
Q 471.2 227.9 471.1 229.45 471.05 230.35 471.1 231.25 471.25 232.6 472.7 235.05
L 473.2 235.9
Q 473.5 236.45 473.7 237.2 470.75 236.5 467.3 239.95 465.6 241.65 465.7 244.1 465.8 246.2 467.05 248.25 466.65 246.1 467.3 244 467.85 242.2 468.8 241.25 469.5 240.55 470.05 240.15
L 470.2 241.45
Q 470.8 243.5 473.1 245.35 475.35 247.2 477.15 247.3 478.85 247.35 481.25 246.55 482.35 246.15 483 246 484.4 245.7 485.25 246.3
L 485 246.3
Q 483.85 246.3 483.05 246.6 482.2 246.95 481.2 247.6 479.8 248.4 479.35 248.55 476.35 249.3 473.5 248.35 470.75 247.05 469.85 246.6 470.2 247.15 471.45 249.2
L 473.15 251.95
Q 473.35 252.2 474.5 253.35
L 474.7 253.55
Q 476.8 255.65 478.95 256.45 480.75 257.1 483 257.1 484.65 257.1 486.1 256.75 487 256.5 488.8 255.85
L 489.95 255.35
Q 490.55 254.9 490.8 255.05 491 255.2 490.7 255.8 491.95 255.4 492.65 254.8 493.05 254.45 494.3 252.8
L 494.35 252.7
Q 495.55 251.2 496.25 249.45
L 496.5 249.5
Q 497.05 248.4 497.45 247.35 498.3 245.3 498.7 243.2
L 498.8 242.35
Q 498.9 241.4 499.35 241.55 499.8 241.75 500.15 243.35 501 241.35 501.25 238.4 501.45 234.95 500.5 232.35 500.25 231.5 500.6 231.55 501 231.55 501.45 232.55 501.45 231.2 501.4 230.35 501.35 228.85 501.15 227.85 502.9 229.95 503.55 231.4 503.75 231.9 504.35 232 504.6 234.05 504.2 237.85 504.1 239.4 503.65 241.6 503.5 242.25 503.35 243.65 503.35 244.4 503.6 246.6 504.15 245.25 504.9 245.15 505.65 245 505.2 246.2 504.85 247.25 503.8 249.35 503.25 250.6 501 253.55 500.25 254.45 499.45 255.8 498.7 257.2 498.5 257.9 499.25 257.6 499.35 257.95 499.45 258.3 498.95 258.65
L 495.9 260.2
Q 494.4 261.1 487.9 264.35 488.85 264.3 489 264.75 489.15 265.15 488.55 265.4 484.75 265.9 481.05 265.9 473.9 265.9 467.9 262 462.05 258.2 459 251.85 457 247.7 456.55 243.4 456.15 239.3 457.25 235.7 457.95 233.45 459.2 231.65
M 477.65 233.75
L 477.9 233.8 475.65 235.15 475.15 235.4 474.95 234.9 474.4 234.05
Q 473.75 233 473.45 232.2
L 474.15 232.65
Q 475.75 233.55 477.65 233.75 Z"/>
</g>

<g id="Layer0_0_MEMBER_6_MEMBER_0_MEMBER_0_FILL">
<path fill="#EFEFEF" stroke="none" d="
M 481.55 233.05
Q 481.55 232.65 481.25 232.35
L 478 233.8 475.65 235.15 475.15 235.35 475.85 237.3 477.2 236.6
Q 477.8 236.3 479.3 235.4
L 479.95 235
Q 480.8 234.45 481.1 234.15 481.6 233.6 481.55 233.05 Z"/>
</g>

<g id="Layer0_0_MEMBER_7_MEMBER_0_MEMBER_0_FILL">
<path fill="#242E33" stroke="none" d="
M 481.2 232.2
Q 480.9 231.9 480.5 231.9 480.05 231.9 479.8 232.2 479.5 232.5 479.5 232.9 479.5 233.9 480.5 233.9 481.5 233.9 481.5 232.9 481.5 232.5 481.2 232.2 Z"/>
</g>
</defs>

<g enable-background="new">
<g transform="matrix( 1, 0, 0, 1, 0,0) ">
<use xlink:href="#Layer1_0_FILL"/>
</g>

<g transform="matrix( 0.3336029052734375, 0, 0, 0.3333282470703125, -151.65,-71.3) ">
<use xlink:href="#Layer0_0_MEMBER_0_MEMBER_0_MEMBER_0_FILL"/>
</g>

<g filter="url(#Filter_1)" transform="matrix( 1, 0, 0, 1, 0,0) ">
<g transform="matrix( 0.3336334228515625, 0, 0, 0.3333282470703125, 0.25,5.1) ">
<g filter="url(#Filter_2)" transform="matrix( 2.9972991943359375, 0, 0, 3.000030517578125, -0.7,-15.3) ">
<g transform="matrix( 0.3336334228515625, 0, 0, 0.3333282470703125, 0.25,5.1) ">
<g transform="matrix( 1, 0, 0, 1, 0,0) ">
<use filter="url(#Filter_3)" xlink:href="#Browser_icons_ai_Firefox_Ellipse_3_copy_2_0_0_Layer0_0_MEMBER_0_MEMBER_0_FILL"/>
</g>
</g>
</g>
</g>
</g>

<g transform="matrix( 0.3336334228515625, 0, 0, 0.3333282470703125, 5.95,0.6) ">
<g transform="matrix( 1, 0, 0, 1, 0,0) ">
<g transform="matrix( 1, 0, 0, 1, 0,0) ">
<use filter="url(#Filter_4)" xlink:href="#Browser_icons_ai_Firefox_Ellipse_4_0_0_Layer0_0_MEMBER_0_MEMBER_0_FILL"/>
</g>
</g>
</g>

<g transform="matrix( 0.3336029052734375, 0, 0, 0.3333282470703125, -151.65,-71.3) ">
<use xlink:href="#Layer0_0_MEMBER_3_MEMBER_0_MEMBER_0_FILL"/>
</g>

<g transform="matrix( 0.3336029052734375, 0, 0, 0.3333282470703125, -151.65,-71.3) ">
<use xlink:href="#Layer0_0_MEMBER_4_MEMBER_0_MEMBER_0_FILL"/>
</g>

<g transform="matrix( 0.3336029052734375, 0, 0, 0.3333282470703125, -151.65,-71.3) ">
<use xlink:href="#Layer0_0_MEMBER_5_MEMBER_0_MEMBER_0_FILL"/>
</g>

<g transform="matrix( 0.3336029052734375, 0, 0, 0.3333282470703125, -151.65,-71.3) ">
<use xlink:href="#Layer0_0_MEMBER_6_MEMBER_0_MEMBER_0_FILL"/>
</g>

<g transform="matrix( 0.3336029052734375, 0, 0, 0.3333282470703125, -151.65,-71.3) ">
<use xlink:href="#Layer0_0_MEMBER_7_MEMBER_0_MEMBER_0_FILL"/>
</g>
</g>
</svg>
