
<svg xmlns="http://www.w3.org/2000/svg" version="1.1" xmlns:xlink="http://www.w3.org/1999/xlink" preserveAspectRatio="none" x="0px" y="0px" width="18px" height="18px" viewBox="0 0 18 18">
<defs>
<linearGradient id="Gradient_1" gradientUnits="userSpaceOnUse" x1="2.5749999999999993" y1="8.75" x2="17.925" y2="8.75" spreadMethod="pad">
<stop  offset="50.98039215686274%" stop-color="#41C3EE"/>

<stop  offset="72.94117647058823%" stop-color="#2FA4DC"/>

<stop  offset="100%" stop-color="#1C70B8"/>
</linearGradient>

<g id="Layer1_0_FILL">
<path fill="#F8384D" fill-opacity="0" stroke="none" d="
M 0 0
L 0 18 18 18 18 0 0 0 Z"/>
</g>

<g id="Layer0_0_MEMBER_0_MEMBER_0_FILL">
<path fill="url(#Gradient_1)" stroke="none" d="
M 17.55 11.25
L 13.4 11.25
Q 12.95 12.05 12.2 12.5 11.4 13 10.45 13 9.5 13 8.7 12.5 7.9 12.05 7.45 11.25 7.05 10.5 7.05 9.65
L 7.05 9.6 17.9 9.6
Q 17.95 9.1 17.95 8.75 17.95 7.2 17.35 5.75 16.8 4.4 15.7 3.35 14.65 2.25 13.3 1.7 11.85 1.1 10.3 1.1 8.75 1.1 7.3 1.7 5.95 2.25 4.85 3.35 3.8 4.4 3.25 5.75 2.6 7.2 2.6 8.75 2.6 10.3 3.25 11.75 3.8 13.1 4.85 14.15 5.95 15.2 7.3 15.8 8.75 16.4 10.3 16.4 12.8 16.4 14.8 14.95 16.75 13.5 17.55 11.25
M 12.5 5.45
Q 13.45 6.3 13.5 7.6
L 7.05 7.6
Q 7.15 6.3 8.1 5.45 9 4.55 10.3 4.55 11.6 4.55 12.5 5.45 Z"/>
</g>

<g id="Layer0_0_MEMBER_1_FILL">
<path fill="#DCCC09" stroke="none" d="
M 196.3 6.6
Q 190 0.35 173.55 1.55 157.45 2.75 136.35 10.75 114.35 19 93.05 32.35 69.8 46.9 52.05 64.65 17 99.7 4.75 137.45 -0.6 153.8 0.05 166.65 0.7 179.35 7.05 185.7 16.5 195.1 38.25 194.15 59.4 193.2 79.85 183.2 76.9 181.75 74.05 180 58.9 186.9 47.6 187.7 35.9 188.45 29.95 182.5 23.85 176.4 24.8 164.35 25.75 152.7 33.05 137.05 48.6 104 82.95 69.65 117.3 35.3 150.35 19.8 166 12.45 177.65 11.55 189.75 10.55 195.85 16.65 201 21.85 201.1 31.5 201.15 40.9 196.4 53.4
L 199 57.7
Q 205.4 41 204.85 28.1 204.35 14.65 196.3 6.6 Z"/>
</g>

<g id="Layer0_0_MEMBER_2_FILL">
<path fill="#FCC52D" stroke="none" d="
M 196.3 6.6
Q 189.9 0.25 175.65 0.05 161.35 -0.15 143.05 5.85 123.65 12.2 104.35 24.05 83.2 37.1 65.45 54.85 47.7 72.6 34.65 93.8 22.8 113.15 16.45 132.55 10.45 150.85 10.65 165.15 10.85 179.4 17.15 185.7 26.55 195.05 43.3 194.15 59.3 193.25 79.85 183.2 76.9 181.75 74.05 180 58.9 186.9 47.6 187.7 35.9 188.45 29.95 182.5 23.85 176.4 24.8 164.35 25.75 152.7 33.05 137.05 48.6 104 82.95 69.65 117.3 35.3 150.35 19.8 166 12.45 177.65 11.55 189.75 10.55 195.85 16.65 201 21.85 201.1 31.5 201.15 40.9 196.4 53.4
L 199 57.7
Q 205.4 41 204.85 28.1 204.35 14.65 196.3 6.6 Z"/>
</g>

<g id="Layer0_0_MEMBER_3_FILL">
<path fill="#FCC52D" stroke="none" d="
M 196.3 6.6
Q 189.9 0.25 175.65 0.05 161.35 -0.15 143.05 5.85 123.65 12.2 104.35 24.05 83.2 37.1 65.45 54.85 47.7 72.6 34.65 93.8 22.8 113.15 16.45 132.55 10.45 150.85 10.65 165.15 10.85 179.4 17.15 185.7 26.55 195.05 43.3 194.15 59.3 193.25 79.85 183.2 76.9 181.75 74.05 180 58.9 186.9 47.6 187.7 35.9 188.45 29.95 182.5 23.85 176.4 24.8 164.35 25.75 152.7 33.05 137.05 48.6 104 82.95 69.65 117.3 35.3 150.35 19.8 166 12.45 177.65 11.55 189.75 10.55 195.85 16.65 201 21.85 201.1 31.5 201.15 40.9 196.4 53.4
L 199 57.7
Q 205.4 41 204.85 28.1 204.35 14.65 196.3 6.6 Z"/>
</g>

<path id="Layer0_0_MEMBER_0_MEMBER_1_1_STROKES" stroke="#1B579D" stroke-width="0.1" stroke-linejoin="round" stroke-linecap="round" fill="none" d="
M 10.328761291503907 4.563607788085937
Q 11.632391357421875 4.563607788085937 12.534904479980469 5.466299438476563 13.487557220458983 6.318841552734375 13.537696838378906 7.622729492187499
L 7.0696861267089846 7.622729492187499
Q 7.169965362548829 6.318841552734375 8.122618103027344 5.466299438476563 9.025131225585938 4.563607788085937 10.328761291503907 4.563607788085937 Z
M 10.47918014526367 13.03887939453125
Q 9.526527404785156 13.03887939453125 8.724293518066405 12.537384033203125 7.922059631347657 12.086038208007814 7.470803070068359 11.283645629882812 7.0696861267089846 10.531402587890625 7.0696861267089846 9.678860473632813
L 7.0696861267089846 9.6287109375 17.94998321533203 9.6287109375
Q 18.000122833251954 9.127215576171874 18.000122833251954 8.776168823242188 18.000122833251954 7.221533203125 17.398447418212893 5.7671966552734375 16.84691162109375 4.413159179687501 15.743840026855468 3.3600189208984377 14.690908050537109 2.2567291259765625 13.33713836669922 1.705084228515625 11.883089447021485 1.1032897949218752 10.328761291503907 1.1032897949218752 8.774433135986328 1.1032897949218752 7.320384216308594 1.705084228515625 5.966614532470703 2.2567291259765625 4.863542938232421 3.3600189208984377 3.8106109619140622 4.413159179687501 3.259075164794922 5.7671966552734375 2.6072601318359374 7.221533203125 2.6072601318359374 8.776168823242188 2.6072601318359374 10.330804443359376 3.259075164794922 11.785140991210938 3.8106109619140622 13.139178466796874 4.863542938232421 14.192318725585938 5.966614532470703 15.245458984374999 7.320384216308594 15.847253417968751 8.774433135986328 16.449047851562497 10.328761291503907 16.449047851562497 12.835742187500001 16.449047851562497 14.841326904296876 14.994711303710936 16.796772003173828 13.540374755859375 17.599005889892577 11.283645629882812
L 13.437417602539062 11.283645629882812
Q 12.986161041259765 12.086038208007814 12.234066772460936 12.537384033203125 11.431832885742187 13.03887939453125 10.47918014526367 13.03887939453125 Z"/>
</defs>

<g transform="matrix( 1, 0, 0, 1, 0,0) ">
<use xlink:href="#Layer1_0_FILL"/>
</g>

<g transform="matrix( 1.0027923583984375, 0, 0, 1.00299072265625, 0,0) ">
<use xlink:href="#Layer0_0_MEMBER_0_MEMBER_0_FILL"/>
</g>

<g transform="matrix( 1.0027923583984375, 0, 0, 1.00299072265625, 0,0) ">
<use xlink:href="#Layer0_0_MEMBER_0_MEMBER_1_1_STROKES" transform="matrix( 0.9972076416015625, 0, 0, 0.99700927734375, 0,0) "/>
</g>

<g transform="matrix( 0.085784912109375, 0, 0, 0.085723876953125, 0,0) ">
<use xlink:href="#Layer0_0_MEMBER_1_FILL"/>
</g>

<g transform="matrix( 0.085784912109375, 0, 0, 0.085723876953125, 0,0) ">
<use xlink:href="#Layer0_0_MEMBER_2_FILL"/>
</g>

<g transform="matrix( 0.085784912109375, 0, 0, 0.085723876953125, 0,0) ">
<use xlink:href="#Layer0_0_MEMBER_3_FILL"/>
</g>
</svg>
