<?xml version="1.0" encoding="UTF-8"?>
<svg width="16px" height="16px" viewBox="0 0 16 16" version="1.1" xmlns="http://www.w3.org/2000/svg" xmlns:xlink="http://www.w3.org/1999/xlink">
    <title>icon_login_user_offline</title>
    <defs>
        <radialGradient cx="35.6770833%" cy="31.652832%" fx="35.6770833%" fy="31.652832%" r="55.101439%" id="radialGradient-1">
            <stop stop-color="#BEBEBE" offset="0%"></stop>
            <stop stop-color="#B9B9B9" offset="100%"></stop>
            <stop stop-color="#C7C7C7" offset="100%"></stop>
        </radialGradient>
    </defs>
    <g id="icon" stroke="none" stroke-width="1" fill="none" fill-rule="evenodd">
        <g id="画板" transform="translate(-376.000000, -200.000000)" fill-rule="nonzero">
            <g id="icon_login_user_offline" transform="translate(376.000000, 200.000000)">
                <path d="M0,7.95294118 C0,10.1803922 0.768627451,12.0784314 2.30588235,13.6470588 C3.84313725,15.2156863 5.7254902,16 7.95294118,16 C10.1803922,16 12.0784314,15.2156863 13.6470588,13.6470588 C15.2156863,12.0784314 16,10.1803922 16,7.95294118 C16,5.7254902 15.2156863,3.84313725 13.6470588,2.30588235 C12.0784314,0.768627451 10.1803922,0 7.95294118,0 C5.7254902,0 3.84313725,0.768627451 2.30588235,2.30588235 C0.768627451,3.84313725 0,5.7254902 0,7.95294118 Z" id="路径" fill="url(#radialGradient-1)"></path>
                <path d="M14.2,13.85 L14.2,13.9 C14.4264323,13.641276 14.6264323,13.3746094 14.8,13.1 C14.7083333,13.2502604 14.5916667,13.4002604 14.45,13.55 C14.3766927,13.6623698 14.2933594,13.7623698 14.2,13.85" id="路径" fill="#211917"></path>
                <path d="M8,1 C9.93333333,1 11.5833333,1.68645358 12.95,3.05936073 C14.3166667,4.43226788 15,6.08980213 15,8.03196347 C15,9.51997717 14.6,10.842656 13.8,12 C13.7679687,11.9661221 13.7346354,11.9326365 13.7,11.8995434 C13,11.2298326 12.1,10.7108067 11,10.3424658 C10.5666667,10.7108067 10.1166667,10.9954338 9.65,11.196347 C9.11666667,11.3972603 8.58333333,11.4977169 8.05,11.4977169 C7.48333333,11.4977169 6.95,11.3972603 6.45,11.196347 C5.95,10.9954338 5.48333333,10.6940639 5.05,10.2922374 C3.95,10.6270928 3.05,11.1126332 2.35,11.7488584 C2.28125,11.8085046 2.21458333,11.8587329 2.15,11.8995434 C1.38333333,10.779609 1,9.49041572 1,8.03196347 C1,6.08980213 1.68333333,4.43226788 3.05,3.05936073 C4.41666667,1.68645358 6.06666667,1 8,1 Z M8,3 C7.6056338,3 7.21126761,3.0875 6.81690141,3.2625 C6.47887324,3.4125 6.16901408,3.625 5.88732394,3.9 C5.6056338,4.175 5.3943662,4.4875 5.25352113,4.8375 C5.08450704,5.2125 5,5.6 5,6 C5,6.575 5.15492958,7.1125 5.46478873,7.6125 C5.74647887,8.0625 6.14084507,8.4125 6.64788732,8.6625 C7.07042254,8.8875 7.52112676,9 8,9 C8.45070423,9 8.88732394,8.9 9.30985915,8.7 C9.81690141,8.45 10.2253521,8.0875 10.5352113,7.6125 C10.8450704,7.1375 11,6.6 11,6 C11,5.6 10.915493,5.2125 10.7464789,4.8375 C10.6056338,4.4875 10.3943662,4.175 10.1126761,3.9 C9.83098592,3.625 9.52112676,3.4125 9.18309859,3.2625 C8.78873239,3.0875 8.3943662,3 8,3 Z" id="形状结合" fill="#211917"></path>
            </g>
        </g>
    </g>
</svg>