
<svg xmlns="http://www.w3.org/2000/svg" version="1.1" xmlns:xlink="http://www.w3.org/1999/xlink" preserveAspectRatio="none" x="0px" y="0px" width="18px" height="18px" viewBox="0 0 18 18">
<defs>
<filter id="Filter_1" x="-20%" y="-20%" width="140%" height="140%" color-interpolation-filters="sRGB">
<feColorMatrix in="SourceGraphic" type="matrix" values="0 0 0 0 255 0 0 0 0 255 0 0 0 0 255 0 0 0 255 0" result="result1"/>

<feComposite in2="result1" in="BackgroundImage" operator="in" result="result2"/>

<feBlend mode="multiply" in2="result2" in="SourceGraphic" result="result3"/>
</filter>

<filter id="Filter_2" x="-20%" y="-20%" width="140%" height="140%" color-interpolation-filters="sRGB">
<feColorMatrix in="SourceGraphic" type="matrix" values="0 0 0 0 255 0 0 0 0 255 0 0 0 0 255 0 0 0 255 0" result="result1"/>

<feComposite in2="result1" in="BackgroundImage" operator="in" result="result2"/>

<feBlend mode="multiply" in2="result2" in="SourceGraphic" result="result3"/>
</filter>

<filter id="Filter_3" x="-20%" y="-20%" width="140%" height="140%" color-interpolation-filters="sRGB">
<feColorMatrix in="SourceGraphic" type="matrix" values="1 0 0 0 0 0 1 0 0 0 0 0 1 0 0 0 0 0 0.04000000000000001 0" result="result1"/>
</filter>

<g id="Layer1_0_FILL">
<path fill="#F8384D" fill-opacity="0" stroke="none" d="
M 0 0
L 0 18 18 18 18 0 0 0 Z"/>
</g>

<g id="Layer0_0_MEMBER_0_MEMBER_0_MEMBER_0_FILL">
<path fill="#E0031F" stroke="none" d="
M 342.5 240.9
Q 342.5 229.7 335.75 221.8 329.05 213.9 319.5 213.9 309.95 213.9 303.2 221.8 296.5 229.7 296.5 240.9 296.5 252.1 303.2 260 309.95 267.9 319.5 267.9 329.05 267.9 335.75 260 342.5 252.1 342.5 240.9
M 328.2 224.65
Q 329.5 228.9 329.5 240.9 329.5 253 328.25 257.2 326.2 263.9 319.5 263.9 312.75 263.9 310.75 257.2 309.5 253.05 309.5 240.9 309.5 229.55 311.15 224.65 313.35 217.9 319.5 217.9 326.15 217.9 328.2 224.65 Z"/>
</g>

<g id="Browser_icons_ai_Opera_Rectangle_7_0_0_Layer0_0_MEMBER_0_MEMBER_0_FILL">
<path fill="#8C8C8C" stroke="none" d="
M 20.1 12.45
Q 18.3 7.55 15 3.8 9 0 1.75 0 1 0 0 0.1 5.9 0.7 7.7 7.35 8.85 11.55 8.85 23 8.85 34.5 7.7 38.7 5.9 45.35 0 45.95
L 1.75 46
Q 9.05 46 15 42.25 18.3 38.5 20.1 33.6 22 28.55 22 23 22 17.5 20.1 12.45 Z"/>
</g>
</defs>

<g enable-background="new">
<g transform="matrix( 1, 0, 0, 1, 0,0) ">
<use xlink:href="#Layer1_0_FILL"/>
</g>

<g transform="matrix( 0.3339996337890625, 0, 0, 0.333282470703125, -97.7,-71.3) ">
<use xlink:href="#Layer0_0_MEMBER_0_MEMBER_0_MEMBER_0_FILL"/>
</g>

<g filter="url(#Filter_1)" transform="matrix( 1, 0, 0, 1, 0,0) ">
<g transform="matrix( 0.3340301513671875, 0, 0, 0.33331298828125, 9.3,1.3) ">
<g filter="url(#Filter_2)" transform="matrix( 2.9937286376953125, 0, 0, 3.00018310546875, -27.8,-3.9) ">
<g transform="matrix( 0.3340301513671875, 0, 0, 0.33331298828125, 9.3,1.3) ">
<g transform="matrix( 1, 0, 0, 1, 0,0) ">
<use filter="url(#Filter_3)" xlink:href="#Browser_icons_ai_Opera_Rectangle_7_0_0_Layer0_0_MEMBER_0_MEMBER_0_FILL"/>
</g>
</g>
</g>
</g>
</g>
</g>
</svg>
