
<svg xmlns="http://www.w3.org/2000/svg" version="1.1" xmlns:xlink="http://www.w3.org/1999/xlink" preserveAspectRatio="none" x="0px" y="0px" width="18px" height="18px" viewBox="0 0 18 18">
<defs>
<g id="Layer1_0_FILL">
<path fill="#F8384D" fill-opacity="0" stroke="none" d="
M 0 0
L 0 18 18 18 18 0 0 0 Z"/>
</g>

<g id="Layer0_0_MEMBER_0_MEMBER_0_FILL">
<path fill="#2E8FEE" stroke="none" d="
M 427.5 222.2
Q 427.5 218.3 425.35 216.1 422.8 213.6 418 213.95 413.35 214.3 407.4 217.25 405.2 216.9 403.5 216.9 394.75 216.9 388.1 222.5 381.55 228 379.9 236.4 382.05 233.95 385.4 231.25 389.7 227.75 392.5 226.9 387.6 231.5 383.4 237.3 382.25 238.85 379.6 243 374.9 250.4 373.8 256.5 372.65 262.7 375.7 265.75 377.85 267.9 381.8 267.95 385.55 267.95 390.5 266 383 268.8 379.95 265.75 378 263.8 378.5 259.8 379 255.95 381.65 250.9 384.55 257.2 390.35 261 396.35 264.9 403.5 264.9 410.95 264.9 417.05 260.7 423.05 256.6 425.75 249.9
L 412.75 249.9
Q 411.25 252.2 408.85 253.55 406.4 254.9 403.5 254.9 399.15 254.9 396 252 392.85 249.15 392.45 244.9
L 427.15 244.9
Q 427.5 242.65 427.5 240.9 427.5 234.25 424.1 228.6 420.8 223.15 415.2 220 422.45 217.45 425.35 220.35 428.35 223.35 425.55 230.9 427.55 226 427.5 222.2
M 410.95 230.8
Q 414.05 233.7 414.45 237.9
L 392.55 237.9
Q 392.95 233.7 396.05 230.8 399.2 227.9 403.5 227.9 407.8 227.9 410.95 230.8 Z"/>
</g>
</defs>

<g transform="matrix( 1, 0, 0, 1, 0,0) ">
<use xlink:href="#Layer1_0_FILL"/>
</g>

<g transform="matrix( 0.3333282470703125, 0, 0, 0.332977294921875, -124.5,-71.25) ">
<use xlink:href="#Layer0_0_MEMBER_0_MEMBER_0_FILL"/>
</g>
</svg>
